<svg data-v-423bf9ae="" xmlns="http://www.w3.org/2000/svg" viewBox="0 0 201.85712304685316 60" class="font"><!----><!----><!----><g data-v-423bf9ae="" id="6cd4836a-e5f3-4075-92be-53c8a3248be2" fill="#000000" transform="matrix(6.1224488604322,0,0,6.1224488604322,-0.7959206620142538,-25.71428452288795)"><path d="M5.74 14L5.28 11.94L3.12 11.94L2.66 14L0.13 14L2.32 4.20L6.08 4.20L8.27 14L5.74 14ZM3.56 10.00L4.84 10.00L4.20 7.14L3.56 10.00ZM16.30 14L13.65 14L12.25 10.14L11.98 10.14L11.98 14L9.49 14L9.49 4.20L13.13 4.20L13.13 4.20Q14.39 4.20 15.30 4.76L15.30 4.76L15.30 4.76Q16.20 5.32 16.20 7.01L16.20 7.01L16.20 7.01Q16.20 9.17 14.67 9.86L14.67 9.86L16.30 14ZM11.98 6.15L11.98 8.19L12.64 8.19L12.64 8.19Q13.22 8.19 13.45 7.90L13.45 7.90L13.45 7.90Q13.69 7.62 13.69 7.06L13.69 7.06L13.69 7.06Q13.69 6.62 13.47 6.38L13.47 6.38L13.47 6.38Q13.24 6.15 12.67 6.15L12.67 6.15L11.98 6.15ZM22.61 4.20L25.10 4.20L22.90 14L19.22 14L17.02 4.20L19.52 4.20L21.07 11.10L22.61 4.20ZM33.10 14L30.45 14L29.05 10.14L28.78 10.14L28.78 14L26.29 14L26.29 4.20L29.93 4.20L29.93 4.20Q31.19 4.20 32.10 4.76L32.10 4.76L32.10 4.76Q33.00 5.32 33.00 7.01L33.00 7.01L33.00 7.01Q33.00 9.17 31.47 9.86L31.47 9.86L33.10 14ZM28.78 6.15L28.78 8.19L29.44 8.19L29.44 8.19Q30.02 8.19 30.25 7.90L30.25 7.90L30.25 7.90Q30.49 7.62 30.49 7.06L30.49 7.06L30.49 7.06Q30.49 6.62 30.27 6.38L30.27 6.38L30.27 6.38Q30.04 6.15 29.47 6.15L29.47 6.15L28.78 6.15Z"></path></g><!----><!----></svg>